REM DIRINDEX 1\2,1\3,1\4
REM DIRNAME folder01,folder02,folder03,folder04
TITLE ""
FILE "CD1Track18.mp3" MP3
  TRACK 01 AUDIO
    TITLE "0:"
    INDEX 01 00:00:00
  TRACK 02 AUDIO
    TITLE "2:cjc075_0134"
    INDEX 01 00:00:11
  TRACK 03 AUDIO
    TITLE "2:cjc075_0135"
    INDEX 01 00:02:42
  TRACK 04 AUDIO
    TITLE "2:cjc075_0136"
    INDEX 01 00:17:02
  TRACK 05 AUDIO
    TITLE "2:cjc075_0137"
    INDEX 01 00:27:51
  TRACK 06 AUDIO
    TITLE "0:"
    INDEX 01 00:34:02
